<?xml version="1.0" encoding="UTF-8" standalone="no"?>
<svg
   version="1.1"
   id="svg851"
   xml:space="preserve"
   width="82.324745"
   height="93.666878"
   viewBox="0 0 82.324743 93.666874"
   sodipodi:docname="luftuj.svg"
   inkscape:version="1.2.2 (b0a8486541, 2022-12-01)"
   xmlns:inkscape="http://www.inkscape.org/namespaces/inkscape"
   xmlns:sodipodi="http://sodipodi.sourceforge.net/DTD/sodipodi-0.dtd"
   xmlns="http://www.w3.org/2000/svg"
   xmlns:svg="http://www.w3.org/2000/svg"
   xmlns:rdf="http://www.w3.org/1999/02/22-rdf-syntax-ns#"
   xmlns:cc="http://creativecommons.org/ns#"
   xmlns:dc="http://purl.org/dc/elements/1.1/"><metadata
     id="metadata857"><rdf:RDF><cc:Work
         rdf:about=""><dc:format>image/svg+xml</dc:format><dc:type
           rdf:resource="http://purl.org/dc/dcmitype/StillImage" /></cc:Work></rdf:RDF></metadata><defs
     id="defs855"><clipPath
       clipPathUnits="userSpaceOnUse"
       id="clipPath871"><path
         d="M 0,841.89 H 595.275 V 0 H 0 Z"
         id="path869" /></clipPath></defs><sodipodi:namedview
     pagecolor="#ffffff"
     bordercolor="#666666"
     borderopacity="1"
     objecttolerance="10"
     gridtolerance="10"
     guidetolerance="10"
     inkscape:pageopacity="0"
     inkscape:pageshadow="2"
     inkscape:window-width="2560"
     inkscape:window-height="961"
     id="namedview853"
     showgrid="false"
     inkscape:zoom="1.9804936"
     inkscape:cx="-258.52141"
     inkscape:cy="163.59558"
     inkscape:window-x="0"
     inkscape:window-y="32"
     inkscape:window-maximized="1"
     inkscape:current-layer="g859"
     fit-margin-top="0"
     fit-margin-left="0"
     fit-margin-right="0"
     fit-margin-bottom="0"
     inkscape:showpageshadow="2"
     inkscape:pagecheckerboard="0"
     inkscape:deskcolor="#d1d1d1" /><g
     id="g859"
     inkscape:groupmode="layer"
     inkscape:label="luftuj_logo_cz_text - kopie"
     transform="matrix(1.3333333,0,0,-1.3333333,-329.15635,721.3773)"><g
       id="g1540"
       transform="translate(-0.40583491)"><path
         inkscape:connector-curvature="0"
         id="path950"
         style="fill:#0098db;fill-rule:evenodd;stroke-width:0.198497"
         d="m 277.73091,517.03806 c -0.0492,-0.0939 -0.0961,-0.19232 -0.14137,-0.29464 1.0762,-1.88485 1.43073,-4.26064 0.95819,-6.64415 0.0892,-0.0396 0.18252,-0.0738 0.28022,-0.10046 6.6576,-2.34405 14.95247,-0.79863 21.72918,0.75991 2.38968,-1.11103 3.50711,-1.62404 5.33087,-2.22261 1.11797,7.88959 2.63824,21.82433 -1.63189,23.17929 -2.89374,0.80425 -13.90274,-3.55552 -20.52008,-6.60963 0.62504,-0.81384 1.58267,-1.68303 1.85693,-2.21689 -1.89874,-2.65819 -4.89837,-4.52982 -7.86205,-5.85082 z m 0.36568,-8.68481 c 1.86819,-1.09151 5.87267,-4.02905 9.67751,-3.88315 0.77393,0.0297 0.69077,1.48521 1.47561,3.51748 7.31971,-4.4235 21.04999,-13.23535 19.67032,-16.69164 -2.47549,-6.2015 -14.80129,-10.08146 -23.43295,-12.27376 -0.0899,1.74513 -0.17853,3.1506 -0.53405,5.28788 -4.07296,4.73592 -9.63044,11.34114 -11.61022,18.28381 -0.005,0.0201 -0.0105,0.041 -0.0157,0.0615 1.64026,0.9593 3.0917,2.43137 4.09886,4.31743 0.2457,0.45996 0.45577,0.92853 0.63187,1.40127 0.0129,-0.007 0.0259,-0.0134 0.0387,-0.0208 z m -12.43299,-6.30791 c -3.10493,-4.71111 -4.22633,-10.77465 -4.66238,-16.27257 -0.80435,-1.09517 -1.86289,-1.48566 -2.28547,-2.65117 4.48252,-4.93685 14.57334,-13.28984 16.21779,-12.25015 3.35208,2.11929 2.56083,14.21362 2.24887,21.39206 -1.25871,0.1878 -2.36179,-0.39292 -3.56534,-0.36567 -1.70213,2.9297 -1.83181,6.29136 -2.01123,9.96367 -1.96809,-0.67963 -4.06643,-0.65768 -5.92404,0.21009 -0.006,-0.009 -0.0123,-0.0173 -0.0182,-0.0262 z m -1.5399,1.01267 c -0.004,-0.0332 -0.009,-0.0661 -0.0142,-0.0985 -2.06284,-2.29385 -3.71886,-3.92032 -4.57097,-6.39934 -0.30766,-0.8951 1.21306,-1.70773 1.55413,-2.37688 -1.97835,-3.21314 -9.17675,-8.86049 -10.17331,-7.02638 -1.65901,3.05322 -2.04111,10.36355 -2.16825,15.8026 0.80866,-0.3756 1.63131,-0.76499 2.37688,-0.4571 3.06513,2.48728 6.26381,5.16115 10.20629,5.66369 0.32302,-2.03406 1.279,-3.85681 2.78944,-5.10812 z m -8.97329,3.40391 c -3.21875,0.36204 -7.63729,1.71523 -7.84174,3.11838 -0.45722,3.13726 3.59865,8.56439 6.16776,12.48581 0.36468,-0.7942 0.33059,-1.37558 0.39411,-1.9198 3.24796,-0.97308 6.69532,-0.99181 9.06063,-4.39417 0.0169,-0.0247 0.0333,-0.0494 0.0493,-0.0744 -0.15495,-0.24383 -0.30283,-0.49525 -0.44156,-0.75507 -0.94317,-1.76596 -1.36774,-3.654 -1.32353,-5.44413 -0.0104,-0.009 -0.0209,-0.019 -0.0313,-0.0282 -1.90063,0.46119 -3.51804,0.43526 -5.87519,-0.30469 -0.32388,-0.71239 -0.006,-1.85087 -0.15848,-2.68368 z m 8.68482,10.75898 c 0.0989,-0.0123 0.19926,-0.0203 0.30062,-0.024 1.34944,1.49148 3.02686,2.5272 4.77859,3.00911 0.0528,0.13045 0.097,0.26313 0.13166,0.39743 0.39898,3.80719 -0.41463,8.03837 -1.497,11.89595 0.30571,1.22926 0.50321,2.01872 0.67997,2.85681 -4.32426,-0.98212 -11.26307,-3.94083 -12.00446,-6.19939 -0.64985,-1.97969 0.97363,-6.17139 2.39973,-9.10188 0.61048,0.40506 1.01718,1.12592 1.55411,1.64554 2.51045,-1.86378 2.68677,-2.79726 3.65678,-4.47953 z m 5.75388,11.18544 c 0.9303,-0.44827 2.06735,-0.0953 2.41472,-0.38143 0.34329,-2.71546 -0.33578,-4.18511 -1.58643,-7.51292 0.005,-0.0103 0.01,-0.0205 0.0145,-0.0309 1.44428,0.12748 2.88946,-0.13122 4.19898,-0.83037 0.64567,-0.34482 1.22098,-0.77689 1.72165,-1.27843 0.0655,0.0396 0.1289,0.0823 0.19,0.12846 4.75368,3.598 8.10542,7.7993 10.36266,14.53563 1.29024,0.75 2.61663,1.26234 3.80729,2.19406 -5.27033,3.16823 -9.63617,6.27108 -13.77737,5.74363 -2.22526,-0.28341 -5.1735,-7.8552 -7.34595,-12.56775 z" /><path
         inkscape:connector-curvature="0"
         id="path952"
         style="fill:#1b1918;fill-rule:evenodd;stroke-width:0.198497"
         d="m 272.9763,514.11224 a 5.1892637,4.1150979 67.4289 1 0 -0.47559,1.99122 l -3.81111,-3.01923 z" /></g></g></svg>
