<?xml version="1.0" encoding="UTF-8" standalone="no"?>
<svg
   height="26.666666"
   aria-label="Add app repository to My Home Assistant"
   viewBox="0 0 57.083332 63.999998"
   version="1.1"
   id="svg18"
   width="57.083332"
   xmlns="http://www.w3.org/2000/svg"
   xmlns:svg="http://www.w3.org/2000/svg">
  <defs
     id="defs22" />
  <g
     id="g16"
     transform="translate(-383.95833,-16.000001)">
    <rect
       width="137"
       height="64"
       x="344"
       y="16"
       fill="#f2f4f9"
       rx="32"
       id="rect6"
       ry="32" />
    <path
       fill="#18bcf2"
       d="M 394.419,37.047 V 60.5 h -4.297 V 46.797 L 384.716,60.5 h -4.157 L 375.216,46.906 V 60.5 h -4.188 V 37.047 h 4.188 l 7.422,18.36 7.484,-18.36 z m 9.365,0 5.344,9.89 5.344,-9.89 h 4.766 l -7.969,14.14 V 60.5 h -4.391 V 51.188 L 398.847,37.047 Z M 457,60 c 0,1.65 -1.35,3 -3,3 h -24 c -1.65,0 -3,-1.35 -3,-3 v -9 c 0,-1.65 0.95,-3.95 2.12,-5.12 l 10.76,-10.76 a 3,3 0 0 1 4.24,0 l 10.76,10.76 c 1.17,1.17 2.12,3.47 2.12,5.12 z"
       id="path8" />
    <path
       fill="#f2f4f9"
       stroke="#f2f4f9"
       d="m 442,45.5 a 2,2 0 1 0 0,-4 2,2 0 0 0 0,4 z"
       id="path10" />
    <path
       fill="#f2f4f9"
       stroke="#f2f4f9"
       stroke-miterlimit="10"
       d="m 449.5,53.5 a 2,2 0 1 0 0,-4 2,2 0 0 0 0,4 z m -15,4 a 2,2 0 1 0 0,-4 2,2 0 0 0 0,4 z"
       id="path12" />
    <path
       fill="none"
       stroke="#f2f4f9"
       stroke-miterlimit="10"
       stroke-width="2.25"
       d="M 442,43.48 V 63 l -7.5,-7.5 m 15,-4.04 -7.41,7.41"
       id="path14" />
  </g>
</svg>
